<svg xmlns="http://www.w3.org/2000/svg" viewBox="0 0 1000 350" width="100%" height="100%">
  <defs>
    <linearGradient id="mainBlue" x1="0%" y1="0%" x2="100%" y2="0%">
      <stop offset="0%" stop-color="#005A9C" />
      <stop offset="100%" stop-color="#0088CC" />
    </linearGradient>
  </defs>

  <text x="480" y="210" text-anchor="middle" font-family="'Segoe UI', Roboto, Helvetica, Arial, sans-serif" font-weight="900" font-size="160" fill="url(#mainBlue)" letter-spacing="-4">OpenLink</text>

  <path d="M 120 180 C 100 320, 350 310, 580 270 C 750 240, 850 150, 900 85" 
        fill="none" stroke="url(#mainBlue)" stroke-width="12" stroke-linecap="round" />

  <path d="M 150 170 C 130 280, 360 280, 570 245 C 730 220, 820 140, 880 90" 
        fill="none" stroke="#0088CC" stroke-width="4" stroke-linecap="round" opacity="0.5" />

  <g transform="translate(900, 85) rotate(-36) translate(-16, -15) scale(2)">
    <path d="M29.2,14.2 L20.1,14.2 L13.5,0.8 L9.4,0.8 L13.5,14.2 L4.8,14.2 L1.8,9 L0,9 L1.8,15.8 L0,22.6 L1.8,22.6 L4.8,17.4 L13.5,17.4 L9.4,30.8 L13.5,30.8 L20.1,17.4 L29.2,17.4 C31.5,17.4 33,16.2 33,15.8 C33,15.4 31.5,14.2 29.2,14.2 Z" 
          fill="url(#mainBlue)"/>
  </g>
</svg>